<svg version="1.1" id="Layer_1" xmlns="http://www.w3.org/2000/svg" xmlns:xlink="http://www.w3.org/1999/xlink" x="0px" y="0px" viewBox="0 0 100.25 100.25" style="enable-background:new 0 0 100.25 100.25;" xml:space="preserve">
<g>
<path d="M66.304,4.581c-0.461-0.294-1.046-0.312-1.525-0.049C64.299,4.795,64.001,5.298,64,5.845l-0.039,25.462
		c-4.495-1.546-9.197-2.328-14.011-2.328c-4.79,0-9.473,0.775-13.95,2.308V7.105c0-0.546-0.297-1.049-0.775-1.313
		c-0.479-0.264-1.062-0.247-1.524,0.044C15.494,17.309,6.643,32.542,6.643,52.408c0,24.003,19.428,43.531,43.307,43.531
		c23.879,0,43.307-19.528,43.307-43.531C93.258,31.742,84.441,16.098,66.304,4.581z M49.95,92.939
		c-22.226,0-40.307-18.183-40.307-40.531C9.643,34.509,17.29,20.571,33,9.88v23.34c0,0.188,0.035,0.373,0.104,0.547l0.075,0.192
		c0.146,0.372,0.433,0.67,0.799,0.829c0.367,0.159,0.781,0.167,1.152,0.018c4.715-1.875,9.702-2.827,14.82-2.827
		c5.167,0,10.196,0.968,14.948,2.877c0.461,0.185,0.985,0.13,1.398-0.148c0.413-0.278,0.66-0.743,0.661-1.241l0.038-24.834
		c15.646,10.764,23.262,25.111,23.261,43.775C90.257,74.757,72.176,92.939,49.95,92.939z" id="id_101"></path>
<path d="M39.29,54.739c0,0.828,0.671,1.5,1.5,1.5s1.5-0.672,1.5-1.5c0-4.136-3.589-7.5-8-7.5s-8,3.365-8,7.5
		c0,0.828,0.671,1.5,1.5,1.5s1.5-0.672,1.5-1.5c0-2.481,2.243-4.5,5-4.5S39.29,52.258,39.29,54.739z" id="id_102"></path>
<path d="M65.633,47.239c-4.411,0-8,3.365-8,7.5c0,0.828,0.672,1.5,1.5,1.5s1.5-0.672,1.5-1.5c0-2.481,2.243-4.5,5-4.5
		s5,2.019,5,4.5c0,0.828,0.672,1.5,1.5,1.5s1.5-0.672,1.5-1.5C73.633,50.604,70.044,47.239,65.633,47.239z" id="id_103"></path>
<path d="M65.782,70.931c-0.828,0-1.5,0.672-1.5,1.5c0,3.584-2.916,6.5-6.5,6.5c-3.474,0-6.312-2.742-6.484-6.175l5.449-8.174
		c0.307-0.46,0.336-1.052,0.074-1.54c-0.261-0.487-0.77-0.792-1.322-0.792h-12c-0.553,0-1.062,0.305-1.323,0.792
		c-0.261,0.488-0.232,1.08,0.075,1.54l5.448,8.173c-0.171,3.433-3.009,6.176-6.484,6.176c-3.584,0-6.5-2.916-6.5-6.5
		c0-0.828-0.671-1.5-1.5-1.5s-1.5,0.672-1.5,1.5c0,5.238,4.262,9.5,9.5,9.5c3.554,0,6.654-1.965,8.283-4.862
		c1.629,2.897,4.729,4.862,8.283,4.862c5.238,0,9.5-4.262,9.5-9.5C67.282,71.603,66.61,70.931,65.782,70.931z M52.697,65.25
		L49.5,70.046l-3.197-4.796H52.697z" id="id_104"></path>
</g>
</svg>